<svg xmlns="http://www.w3.org/2000/svg" viewBox="0 0 1000 1000"><path d="M320 121.2c-23.8 2.4-51.3 8.8-86.9 19.9-27.3 8.5-29.1 9.3-29.1 11.7 0 1 1.9 4.9 4.2 8.8 13.5 22.6 40.1 50.4 67.2 70.3 61.4 45.2 131.2 52.2 204.3 20.6 6.7-2.9 12.4-5.1 12.6-4.9.3.3-.2 4.6-1.9 16l-.4 3.1-11.8.7c-78.7 4.6-140.2 29.7-189.5 77.5-41.9 40.6-66.7 89.6-75.8 149.6-1.7 11.1-2.2 18.7-2.2 36.5 0 33.6 3.9 59.7 13.2 87.9 20.9 63.5 67.3 117.1 128.6 148.7 30.9 16 60.8 24.9 99 29.6 17.5 2.1 82.1 1.8 100-.6 55.2-7.1 100.9-25.9 141.5-58.3 11.8-9.3 32.2-29.9 41-41.3 29.5-38.2 46-76.9 53.6-126 2.6-16.6 2.6-58.4 0-76.5-13.9-97.8-81.3-178.7-175.2-210.3-21.3-7.1-47.1-12.7-70.4-15.1-5.8-.7-12.9-1.4-15.7-1.7-2.9-.3-5.3-.8-5.3-1.1 0-1.9 5.2-14.7 10.7-26.3 7.5-15.8 18.4-32.5 28-43 12.5-13.6 13-14.9 9.3-22.5-4.1-8.6-14.1-16.3-24.6-19-12.3-3.2-18.2-1.4-23.3 7-4.8 7.9-13.5 28.3-17.8 41.7-2.1 6.5-4 11.8-4.3 11.8s-2.1-3-3.9-6.8c-4.5-9.2-14.7-24.2-22.5-33.2-22-25.3-55.2-44.6-88.7-51.8-18.7-4.1-43.1-5.2-63.9-3m59.5 14.8c45.7 9.8 80.8 35.2 105.2 75.9 3.5 5.8 6 10.7 5.5 10.9-.5.1-3.4-1.1-6.3-2.8-47.2-27.9-123.8-49.1-185.4-51.4-15.7-.6-15.6-.6 13 4.9 55.7 10.7 110.9 28.2 148.8 47.1 13 6.5 27.7 15.2 27.7 16.3 0 2-22.9 10.7-39.4 15.1-65.4 17.4-120.7 5.5-175.6-38-13-10.3-39.6-36.7-47.8-47.7-3.4-4.5-6.2-8.6-6.2-9 0-.5 2.8-1.6 6.3-2.5 3.4-.9 15.9-4.1 27.7-7.2 22.9-5.9 46.5-10.9 62-13.1 14.9-2.2 51.6-1.3 64.5 1.5m164 29.5c6.2 1.8 14.8 7.7 16.4 11.2 4.2 9.3-14.7 4.9-24.7-5.8-6.1-6.5-2.7-8.8 8.3-5.4m-2.1 17.1c2.8 1.3 5.8 2.4 6.6 2.4 4.5.1 4.2 1.8-1.8 9.3-21.5 27.1-36.7 64.9-41.3 102.9-1.3 10.2-1.8 11-6 8.8-2.3-1.3-2.5-7.8-.8-27.7 2-24.2 6.4-45.4 14.4-68.8 4.3-12.7 12.7-32.7 14.7-35.3.8-.9 2-.4 5 2.4 2.2 2 6.3 4.7 9.2 6M489 286.1c0 5.9-.1 6.1-2.2 5.5-1.3-.4-7-.9-12.7-1.3-11.6-.7-11.2-1.3-5.4 6.8 1.8 2.6 3.3 5.1 3.3 5.7 0 .5-2 2.2-4.5 3.6-2.4 1.5-7.5 5.6-11.2 9.2-6.4 6.2-6.7 6.6-4.6 7.5 1.3.4 9.1 1.4 17.5 2l15.3 1.3 4.5 4c2.5 2.3 6.7 5.9 9.3 8l4.8 3.9 8.2-8.1c7.2-7.1 8.7-8.2 11.7-8.2 4.8 0 29.2-2.9 29.9-3.5.8-.9-8-9.2-15-14.2-3.8-2.7-6.8-5.3-6.8-5.8-.1-.6 1.7-3.3 3.9-6 2.2-2.8 4-5.3 4-5.8 0-1-9-.9-17.1.4-3.9.6-7.2.9-7.4.7-.4-.3 2.2-10.9 2.8-11.5.5-.4 21.5 1.4 31.7 2.8 82.7 11.3 146.6 49.8 188.4 113.3 37.3 56.8 49 132.5 31.2 202-19.7 76.7-76 139.1-152.4 169-19.7 7.7-45.5 13.8-71.7 16.8-14.8 1.7-76.2 1.7-91 0-34.8-4.1-60.8-11.6-90-25.7-25.2-12.3-45.3-26.4-65.9-46.5-18.4-17.9-30.7-33.9-42.9-55.7-31.2-55.6-39.5-128.1-22.1-191.8 5-18.2 9.5-29.8 17.8-46 36.2-71 100.9-117.6 184.6-132.9 12.8-2.3 35.2-4.8 50.3-5.4l3.7-.2zm0 19.4c.3 2.2.9 4.6 1.3 5.3 1.5 2.3 6.9 4.4 11.5 4.4 6.2 0 9.5-2.6 10.3-8.1.6-4.9 1.3-5.6 5.8-6.5 3.3-.6 3.3-.6 2.7 2.7-.5 3.1-.3 3.4 6.2 7.7l6.7 4.5-9.2.5c-8.8.5-9.4.7-13 4-2 1.9-4.5 4.5-5.6 5.7-1 1.3-2.5 2.3-3.2 2.3-.8 0-4-2.3-7.2-5.1-7.2-6.3-8.7-6.9-17.4-6.9-3.8 0-6.9-.3-6.9-.8 0-.4 2.5-2.3 5.5-4.2 4.9-3 5.6-3.9 5.4-6.5-.2-4.3-.2-4.3 3.4-3.6 2.8.6 3.3 1.1 3.7 4.6"/><path d="M382.9 412.5c-10.3 3.8-19.1 11.3-22.9 19.8-1.9 4-2.6 8.7-1.5 8.7.3 0 2.7-1.1 5.3-2.4 8.2-4.1 19.4-7.7 30-9.7 12.5-2.3 14.2-3.1 14.2-6.8 0-3.6-3-7.4-7.4-9.5-4-1.9-12.7-2-17.7-.1m211.2.7c-4.8 3.2-7.6 8.1-6.2 10.7 1.3 2.3 4.8 3.5 14.6 5.1 8.5 1.3 17.5 4.2 27.4 8.7 4 1.8 7.5 3.3 7.7 3.3.8 0-1-5.6-3.2-10-3-6.1-10.7-13.5-17.4-16.8-7.9-3.8-18.1-4.3-22.9-1m-207.6 39.1c-18.5 4.9-33.2 21.8-38.6 44.3-1.8 7.6-2 11-1.6 22.9.5 14.6 2.8 24.8 7.9 35 1.9 3.7 2 4 .3 5-4.6 2.7-9.6 6.7-9.1 7.2.3.3 4.1 0 8.3-.8 4.9-.9 14.6-1.4 26.3-1.4 21 .1 29.2 1.5 51.4 8.5 7 2.3 13 3.9 13.2 3.7.3-.2-2-2.3-5.1-4.7-3-2.3-5.5-4.7-5.5-5.2 0-.6.8-2.2 1.9-3.6 8.1-11.5 12.2-25.9 12.3-42.7 0-26.6-8.6-46.5-26-60.3-9.6-7.6-24.4-10.8-35.7-7.9m25.9 12.6c7 3.4 15.4 11.6 19.4 18.9 1.3 2.3 2.1 4.2 1.9 4.2s-2.1-1.3-4.1-2.9c-5.6-4.5-12.6-6.4-21-5.9-11.1.7-20.2 6.6-27.2 17.4-5.7 8.9-7.7 16.4-7.7 28.9-.1 9.5.3 12 2.7 18.5 1.5 4.1 3 8.2 3.3 9.1.4 1.3-.9 1.8-6.7 2.6l-7.2.9-1.9-3c-5.6-9.2-9.5-27.3-8.5-40.1 2.9-38.3 30.4-61.7 57-48.6m-9.2 36.2c5.5 2.9 5.3 12.5-.3 15.4-4 2.1-6.3 1.9-9.8-1.1-8.2-6.9.6-19.4 10.1-14.3M589 452.4c-8.1 2.2-14.4 6-21.5 13.1-23.2 23.1-27.1 66.1-8.8 95.9 3.5 5.7 3.5 6 1.7 7.2-5.4 3.7-10.4 7.7-10 8.1.2.2 6.5-1.4 14-3.7 20.1-6.1 31-8 48.6-8.6 11.5-.5 18.2-.2 25.9 1 5.8.9 10.9 1.6 11.4 1.6 1.9 0-1.8-3.2-6.4-5.6l-4.8-2.4 3.5-7.4c5.7-12.5 7.7-22.9 7.1-38.1-.5-14.7-2-20.9-7.4-32.1-4.5-9.2-14.8-20.7-22-24.7-9.8-5.3-21.7-6.9-31.3-4.3m23.4 12.5c12.2 6 21.4 19 25.8 36.3 3 11.8 2.2 29.8-1.7 41.4-1.5 4.5-3.5 9.5-4.4 11.1l-1.8 2.9-7.7-1c-8.7-1.1-8.3-.3-4.1-10.5 7.3-17.3 2.8-41.3-10.3-55.3-7.2-7.7-12.9-10.2-23.2-10.3-8.8 0-11.8.9-18.7 5.5-4.8 3.2-4.2.7 1.5-6.7 12.5-16.5 28.6-21.3 44.6-13.4m-32.3 38c8.2 8.2-3 20.3-11.8 12.7-2.2-1.9-2.8-3.2-2.8-6.6 0-8.2 8.8-11.9 14.6-6.1M488 569.3c-5.8 3-10 8.4-10.7 13.6-.3 2.2-.2 4.1.3 4.1s2.9-2.1 5.3-4.6c2.3-2.5 5.8-5.2 7.7-6 7.8-3.3 16.8-.4 23.1 7.3 3.3 4.1 3.8 4.3 4.4 2.5 1.9-5-3.3-13.7-10.2-17.2-5.5-2.8-14.3-2.7-19.9.3m-52.2 46.1c-10.3 3.7-15.8 11.7-15.8 22.7 0 5.3 1.4 6.3 3.2 2.4 1.5-3.2 2.6-3.2 3.4.2 2.5 10.5 11.7 24.7 22.2 34.4 37.7 34.8 93.4 22.3 116.7-26.3 1.9-4 3.5-7.8 3.5-8.5 0-2.4 2-2.3 3.2.1 1.8 4.1 2.8 3 2.8-3.2-.1-10.2-6.1-19-15-21.6-3.7-1.1-6.9-1.1-19 0-26.1 2.4-54.4 2.8-76 1-10.7-.9-20.8-1.9-22.5-2.1-1.6-.3-4.7.1-6.7.9M468 627c13.6 1.2 44.6 1.2 58 0 26.5-2.4 31.3-2.4 33.9-.3l2.4 2-1.7 5.4c-2.1 6.5-7.8 18.5-10.5 21.8l-1.9 2.5-4.9-3.2c-8.6-5.5-15.6-7.5-26.8-7.5-7.6-.1-11.3.4-15.6 1.9-5.2 1.8-6 1.9-9.5.6-2.4-.9-7.7-1.5-13.9-1.5-10.9-.1-15.8 1.2-24.6 6.4-2.7 1.6-5.3 2.9-5.7 2.9-2.4 0-12-20.2-12.9-27-.9-6.4 2.3-6.8 33.7-4m53.9 30c6.6 1.1 19.1 6.2 19.1 7.8 0 1.4-7.8 8.3-13.5 11.9-20.2 12.8-49.8 10-68.4-6.3l-5.4-4.8 2.2-1.7c4.2-3.4 12.8-5.9 20.4-5.9 8.9 0 15.1 1.6 24.6 6.4 4 2.1 7.6 3.5 7.9 3.2s-.9-2.4-2.7-4.7c-1.8-2.2-3.1-4.3-2.8-4.5.4-.5 7.5-1.9 11.2-2.3.6 0 3.9.4 7.4.9m-6.4 51.8c-6.5 1.8-29.4 2-35.4.3-2.3-.7-4.6-1-4.9-.7-1.1 1.2 5.1 6.5 10.2 8.7 6.3 2.8 15.9 3 23.3.5 5.2-1.7 14.5-8.8 12.7-9.7-.5-.3-3.1.1-5.9.9"/></svg>