<svg xmlns="http://www.w3.org/2000/svg" viewBox="0 0 1000 1000"><path d="M478 84.6c-7.8 1-25.5 4.6-33.5 6.9-10.8 3.2-17.5 6.5-20.9 10.5-3.8 4.5-3.7 8.2.1 20.5 6.6 20.8 16.3 33.5 31.9 41.2l9.3 4.6.7 4.5c1.6 10.9-1.8 28.4-7.9 40.1-2.8 5.5-4.2 7-9.7 10.3-8.6 5.2-11.1 7.7-17.6 17.4-16.3 24.5-23.4 50.1-28.9 104.4-6.1 61.3-7.8 73.6-12.5 94.5-6.8 29.4-13.9 49.5-26.8 75-9.7 19.3-20.3 35-34 50.6-18 20.5-29.9 30.5-76.4 64.4-27.8 20.3-48.1 44.9-56.3 68.2-2.5 7-11.8 15.4-21 19-8.4 3.2-10.5 5.9-10.5 13.1 0 10.2 5.9 27 11.2 31.9 3.1 2.9 9 5.3 13 5.3 1.8 0 7.1-1.4 11.8-3.1 12-4.3 12.5-4.4 16.3-2 6 3.7 24 9.9 32.1 11 14.5 2 36.2.6 50.6-3.3 3-.9 5.6-1.3 5.9-1 1.3 1.3-6.3 13.4-10.9 17.3-6.4 5.4-6.9 8.1-4 20.9 3.9 16.7 4.8 19 8 20.7 3.7 1.9 11.1 1.9 20.4 0l7.4-1.5 8.3 5c13.4 8 32.3 14.9 50.9 18.5 13.3 2.6 45.3 3.2 61.8 1.1 52.7-6.7 100.7-30 142-68.9 20.7-19.4 35.8-37.1 49.9-58.5 4.1-6.1 7.6-11.2 7.8-11.2.1 0-1.7 5.8-4.1 12.9-5.4 16.2-10.4 41.9-11.7 60-.2 3.2-.8 3.8-8.6 8.3-11.1 6.4-21.1 14.6-25.7 21.4-3.4 4.9-3.9 6.3-3.8 11.2 0 3.5.7 7.1 1.8 9.2 2.7 5.2 21.4 23.3 26.7 25.8 5.7 2.8 12.9 2.8 18.8.2 7.9-3.6 22.8-17 31.2-28.1 1.8-2.3 4.3-4 8-5.3 19.7-6.8 47.3-21.2 63.9-33.4 8.3-6.1 25.1-20.5 29-24.9 18.9-21 26.3-31.6 36.3-52.1 17.4-35.4 25.4-71 26.4-117.7.6-25.6-1.1-43.5-6.7-71-13.9-68.6-47-156-84.5-223.5-30.5-54.7-66.3-93.3-103-111-12.7-6.1-24.9-9.6-39.5-11.4-6.3-.8-13.6-2.4-16.2-3.5-6.1-2.6-16.6-9.5-25-16.6-6.8-5.6-21.7-22.6-21.9-24.8 0-.7-.2-6.2-.2-12.2-.2-10.9-.2-11.1-4.5-19.1-5.3-10-9.9-15.6-16-19.2-4.5-2.6-5.2-2.7-20.2-2.8-8.5-.1-17.1 0-19 .2m31.5 8.3c5.3 2.4 6.9 4.4 6.1 7.8-1 3.8-6.3 11.6-12.8 18.7l-5.4 5.9-3.3-3-3.4-3 6-4.6c8.2-6.2 11.5-10.3 11.1-13.6-.4-3.2-3.8-4.3-3.8-1.2 0 2.6-5.3 8.6-10.3 11.8-2.2 1.4-6.9 3.6-10.6 5-6.1 2.4-7.4 2.5-18.8 2-9.1-.4-13.4-1.1-16.7-2.5-4.8-2.2-8.2-6.2-7.2-8.7.9-2.4-1.1-1.7-3.3 1.1-3 3.8-1.2 6.7 6.8 10.7 6.5 3.2 6.7 3.2 24.6 3.7 19 .5 20.1.8 24.9 5.9l3 3.1h-5.5c-7.1 0-35.1 3.9-36.3 5-1.6 1.6 4.4 2.3 13.3 1.6 28.3-2.4 28.5-2.4 32.8 1.6 1.3 1.2 3.6 4.5 5.1 7.1 4.2 7.8 3.7 3.7-.8-6.9-5.8-13.7-5.9-14.8-2-18.1 10.4-8.8 13.7-11.9 15.5-14.4 1.1-1.6 2.3-2.9 2.6-2.9 1 0 7.7 15.2 8.4 19 .8 4.7-.4 7.5-6.8 15.8-2.9 3.8-6.3 9.6-7.5 12.9l-2.2 6-5.8.7c-6.6.7-13.6 2.7-18.3 5.1-2.6 1.4-3.8 1.5-6.8.6-2-.6-7-1.8-11.1-2.7-9.5-1.9-16.5-6-24-14.2-5.6-6.1-13.1-18.5-11.9-19.7.4-.3 1.8-.1 3.3.5 3.3 1.2 19.3 1.3 20 .1.3-.5-.9-1.1-2.7-1.5-1.7-.4-7-1.8-11.7-3.2-13.3-4.1-19.2-11.4-14.4-18.2 3.5-5 19.3-10.6 37.4-13.2 11-1.5 13.3-1.7 26.5-1.8 9.7-.1 12.8.2 16 1.7m23.6 50.8c13.5 20.1 33.3 36.6 50.6 42.4 3.5 1.1 6.3 2.4 6.3 2.9 0 .4-.8 1.8-1.9 3.1-1.7 2.1-2.1 2.2-5.8 1.1-4.8-1.4-19.2-10.3-27.8-17.2-3.5-2.8-9.6-8.5-13.6-12.8l-7.3-7.7 2.9 5c6.4 11.3 19.2 28.2 28.8 38.2 2.8 2.9 4.9 5.4 4.6 5.5-.2.2-3.2 1.3-6.6 2.4l-6.3 2.1-8.8-9.1c-4.8-5-12.5-14.2-17.2-20.3-4.6-6.2-8.5-11.1-8.7-11-.4.4 6.5 20.7 10.6 31.1 3.4 8.7 3.3 9-2.8 10.1-2 .4-5.5 1.7-7.8 3.1l-4.2 2.4-2.5-8.2c-6-20.1-11.6-39.6-11.6-40.7 0-.6 1.8-1.1 4.5-1.1 5.4 0 5.8.7 12.1 19 2.3 6.9 4.3 12.1 4.3 11.7.1-.4-1.7-8.3-4-17.5-4.3-17.8-4.4-20.4-.8-27.4 1.7-3.4 8.5-11.8 9.5-11.8.2 0 1.7 2.1 3.5 4.7m-30.3 27c2 10.4 7.2 46.5 7.2 50s0 3.5-3.2 2.7c-1.8-.4-5.9-.8-9.1-.9-5.7 0-5.8-.1-5.3-2.5 3.2-15.2 2.6-37.2-1.4-46.5-1.1-2.6-1.9-5-1.6-5.2.5-.5 9.5-3.1 11.2-3.2.6-.1 1.6 2.5 2.2 5.6m-23.4-2.2 2.8.6-.4 11c-.2 6 0 10.1.4 9.2.3-1 .7-5 .7-9 .1-3.9.5-7.4 1-7.8 1.5-.8 3.1 6.2 3.1 13.1 0 12.9-5.8 35.3-10.8 41.4l-1.8 2.2-5.1-3.5c-2.9-1.9-5.7-3.7-6.4-3.9-.8-.3-.4-1.8 1.3-4.9 1.4-2.4 3.9-8 5.4-12.4 2.7-7.8 3.2-12.8 3.4-37.3 0-.2.8-.1 1.8.1.9.3 3 .8 4.6 1.2m129.9 24c27.6 7.2 47.8 19.6 73.1 45 6.7 6.8 15.8 17 20.3 22.7 40.6 51.8 88.8 159 111.3 247.3 7.2 28 9.9 44.2 11.1 66 3.2 55.9-8 110.7-30.8 150.5-14.4 25.1-42.1 53.1-70.3 70.9-10.3 6.5-46.1 24.9-51.7 26.6-1.9.5-2.6-.1-4.9-4.7-1.4-2.9-5.1-8.8-8.1-13.1-5.2-7.5-5.4-8-4.2-10.9 1.5-3.6 15.4-22.6 35.4-48.3 38.2-49.1 52.9-71.8 65.8-101.6 10.8-24.6 18.4-53.7 20.6-78.9 1.6-16.8 1.3-52.2-.4-68-9.3-83-46.2-175.7-94.4-237-7.7-9.7-9.3-10.1-2-.4 27.5 36.2 61 108.6 76.7 165.9 11.3 40.8 15.4 69.6 15.5 106.5 0 31-1.5 47.4-6.4 66.5-11.3 44.2-26.6 72.8-72.2 135.3-24.8 33.9-29.2 40.1-35.4 49.5-3.7 5.6-6.8 10.4-6.9 10.6-.2.2-3.5-.6-7.4-1.9-6.9-2.2-7-2.3-7-5.7 0-4.7 7.3-36.8 11.7-51.2 5.6-18.5 12.4-34.9 25.4-61.1 12.5-25.2 22.7-46.9 26-55.3s.4-5-6.1 7c-7.3 13.8-12.4 21.7-12.8 20.3-.2-.5 1.5-6.5 3.7-13.2 6.8-20.8 11-39.2 14.8-65.8 1.4-9.9 1.8-19 1.8-44v-31.5l-3.8-21.6c-2.1-11.9-4.2-23-4.7-24.8-.5-1.7-.5-3.1 0-3.1 1.1 0 8.3 19.9 11.3 31.5 1.4 5.5 3.3 15.2 4.2 21.5s2 13.5 2.4 16l.9 4.5.1-5c.1-9.4-1.8-29.2-3.8-38.1-3.3-14.8-7.9-27.5-16.8-46.4-5.8-12.4-8.4-20.7-13.3-42.5-3.9-17.3-5.2-22.2-13.5-52.5-13.9-50.5-31-83.7-55.8-108.3-6.5-6.5-11.7-12.1-11.4-12.3.2-.2 3.7 1.9 7.8 4.8 11.5 8.1 19.3 16.5 34.3 37.1 4.4 6.1 4.2 3.5-.5-5.3-10.8-20.3-25.5-33.9-45.1-41.8-4.1-1.7-3.7-7.1 1-12.5 2-2.2 3.2-2.2 14.5.8m-24.6 20.1c15.7 7.6 37.8 33.4 52.7 61.5 16.6 31.4 31.3 78.8 44.5 142.9 11.8 57.8 14.3 108.7 7.6 153.2-5.9 38.2-17 73.1-34 106.8-14.8 29.1-34.5 57.2-56.5 80.3-3.6 3.8-6.8 7.5-7.2 8.2-1 1.6-25.3 22.6-33.3 28.7-24 18.2-54.3 33-82.9 40.4-22 5.6-30.6 6.7-56.1 6.8-21.6 0-23.8-.1-36-2.7-16.3-3.5-25-6.4-39-13.1l-11.2-5.3-.6-13.9c-.4-8.4-1.3-15.7-2.2-18.3-.8-2.4-1.5-4.7-1.5-5.1 0-1.8 13.1-6.3 43-14.6 12.9-3.7 26.4-7.4 30-8.4 20.7-5.8 37.5-11.6 53-18.4 14.6-6.4 41.1-20.5 51.1-27.1 59.9-39.9 97-96.8 108.9-167.5 1.7-9.8 2.2-17.9 2.5-37 .3-21.2.2-22.7-.5-11-2.4 37.3-8.3 66.1-19.6 94.6C574.9 651 534 694.7 473.5 726.1c-22 11.4-44.6 19.8-100.5 37.2-16.8 5.3-33.8 10.9-37.9 12.6l-7.3 3-6.4-6.2-6.4-6.2 6.6-10.5c8.1-13 15.3-21.7 25.9-31.8 15.4-14.6 25.7-21.4 61.5-40.4 41.6-22 54.5-31.2 76.7-53.9 17.6-18.2 30.8-38.6 40.6-63.5 4.3-10.6 10.1-31.2 12.2-43.3.9-4.7 1.8-9.5 2-10.7.3-1.5 2.6-3 8.2-5.4 10.2-4.2 21.9-11.2 29.7-17.7 6.3-5.2 18.6-18.9 18.6-20.6 0-.5-3.1 1.9-6.8 5.5-9.3 8.8-19.6 15.8-32.6 22.3-15 7.5-20.7 8.8-39.1 8.9-14 .1-15.5-.1-22.5-2.7-22.6-8.3-38.9-26.4-48.6-54-1.5-4.3-2.9-7.6-3.1-7.3-1.6 1.6 8.4 28.4 13.8 36.7 1.6 2.5 2.9 5.7 2.9 7 0 4.1-8.8 31.5-15.7 48.9-13.8 34.7-26.5 56.1-48.7 81.9-28 32.4-72 61.5-122.1 80.5-21.2 8-58.1 20.6-60.5 20.6-1.9 0-12-10.7-12-12.7 0-2.7 10.4-21.3 16.4-29.3 10.8-14.4 33-34.4 55.3-49.9 39.2-27.3 69.4-58 88.5-90.1 21.1-35.6 35.2-77.8 41.3-123.2.8-6.2 2.1-16 2.9-21.8s2-16.6 2.6-24c2.6-31.3 5.7-55.9 9.1-71 7-30.8 22.1-58.9 35.2-65.5 6.1-3 7.6-3.1 12.6-.6 6.7 3.5 6.8 3.9 3.2 15.4-5.2 16.5-7 29.6-8.2 61.4l-1.1 28.6-3.9 7.6c-5.2 10.3-7.3 19.6-6.5 28.9.4 4 1.1 8.4 1.6 9.7 1.1 2.9-.3 4-6.7 4.8-6.2.8-12.9 5.1-16.4 10.5-2.5 4-2.9 5.5-2.6 10 .3 4.1 1 5.9 3.2 8.2 2.5 2.6 3.5 2.9 9.9 3.2 6.7.3 7.1.4 7.4 2.8.7 4.9 10.6 27.6 16.1 37 7.8 13.3 20.1 26 29.5 30.5 18.2 8.7 32.3 8.6 55.4-.5 15.3-6.1 34.3-18.4 50.6-32.8l8.9-7.9 4.6 1.7c7 2.7 15.9 4.3 19.8 3.5 4.1-.7 11.1-6.8 13-11.2 4.3-10.4-3.2-23.5-17.4-30.5-3.4-1.7-6.3-3.3-6.3-3.5s2-4.5 4.5-9.6c4.8-10 6.5-17.6 6.5-29.7 0-16.4-7.8-29.8-20.8-35.8-20.4-9.3-45.8 7.5-52.8 35-1.6 6.2-1.5 19.8.2 28.5.6 3 .4 3.3-1.7 3.3-4.5 0-.4 1.8 4.6 2 7.6.4 8 .2 5.3-2-6.8-5.3-6.4-31.5.7-43.6 4.2-7.2 11.3-14.1 17.7-17.3 5.2-2.6 7.3-3.1 13.5-3.1 7.5 0 13.1 1.6 16.5 4.7 2.4 2.1 2.3 3.6-.1 2.3-1.1-.5-4.2-1-6.8-1-9.3 0-19.9 7.6-24.4 17.4-2.6 5.7-2.6 20.4 0 26.1 4.4 9.8 10.3 13.8 20.1 13.9 7.6 0 11.1-1.5 17.1-7.7 3.5-3.6 4-3.8 3.4-1.7-1.2 4-5.6 12.3-7.7 14.7-1.9 2-2.6 2.1-13.2 1.6-15.5-.8-25 1.3-30.6 6.6-5.7 5.4-5.6 9.4.4 15.3 2.4 2.4 7.4 6.4 11 8.7 3.6 2.4 6.6 4.7 6.6 5.1 0 2-29.1 5-47.5 5-22.3 0-38.8-2.9-56.8-10-11.5-4.5-21.1-9.8-27-15.1l-4.1-3.6 5-1.8c27.1-9.9 34.1-13.8 18.7-10.4-21.8 4.9-39.2 7.9-43.2 7.7-3.9-.3-4.6-.7-5.4-3.1-2.4-7.4 3-15.7 12.1-18.3 7-2.1 21.6-1.4 31.5 1.4 3.7 1.1 6.7 1.7 6.7 1.5 0-.8-12.8-6.2-17.5-7.4-4-1-5-1.7-6.2-4.7-3.5-8.4-2.6-25.8 1.9-34.7 3.2-6.3 10.2-13.8 15.4-16.7 8.7-4.6 22.5-4.4 28.4.3l2.5 2-4-.2c-7.9-.4-10.2.1-14.7 3.1-15.3 10.1-17.7 32.6-5 45.5 9.2 9.3 20.8 9 30.7-.9 2.5-2.5 4.5-4.2 4.5-3.8 0 2.7-4.5 13.3-6.3 14.9-1.2 1-5.5 2.9-9.4 4.2-4 1.2-7.3 2.5-7.3 2.8 0 .7 16-.8 18.6-1.7 4.5-1.7 9.4-19.6 9.4-34.3 0-16.6-7.9-31-20.5-37.5-8.6-4.3-23.8-3-31.2 2.8-1.4 1.1-3 2-3.4 2-.5 0-.9-3.1-.9-7 0-8 .5-8.7 12.2-16.6 10.5-7 15.1-8.7 24.8-9.1 4.7-.2 9 0 9.6.4.7.4 2.6 8.2 4.3 17.3 1.8 9.1 3.8 19 4.5 22l1.4 5.5.1-4c0-2.2-1-15.7-2.4-30-4.7-50.6-5.2-71-1.9-81.6 3-9.5 12.1-14.1 24.7-12.4 4.2.6 5.9 1.4 8.8 4.5 6.7 7 15.6 26.7 24.5 54.5 2.7 8.2 5 14.2 5.2 13.2.5-2.6-4.5-25.7-7.9-36.5-3.5-10.9-7.5-19.9-12.4-28.3-1.9-3.3-3.5-6.4-3.5-6.8 0-.5 2.1-1.8 4.8-3 6.1-2.8 15.3-2.2 22.9 1.5m-80.3 16.7 2.9 1.3.3 15.4c.1 8.5 1 21.5 1.8 28.8.9 7.4 1.6 13.5 1.6 13.6s-3.4 0-7.6-.2c-7.1-.4-8-.2-14.9 3.2-4.7 2.3-10.1 6.2-15 10.8l-7.7 7.2.6-8.4c2-23.6 8-53.9 12.4-62.6 3.6-7 9.1-10.3 17.2-10.3 3 0 6.8.5 8.4 1.2m1.8 109.4c2.7 2.4 2.4 9.4-.4 12-4.8 4.3-10.9 4-13.3-.8-2.3-4.3-1.8-6.4 2-9.8 4-3.5 8.7-4.1 11.7-1.4m112.6 9.9c7.1 5 2.4 15.4-6.9 15.4-2.9 0-4.3-.6-5.8-2.6-2.7-3.4-2.7-6.4 0-9.8 3.6-4.6 8.8-5.8 12.7-3m-3.3 62.6c11.1 3.6 22.5 13.1 24 19.9 1.4 6.3-3 14-8.9 15.5-3.9.9-13.4-2.4-31.3-11.1-16.9-8.2-25.9-13.7-26.8-16.5-2.8-9 24.4-13.9 43-7.8m-137.3 26.3c10.5 4.8 23.1 8.3 38.8 10.7 11.5 1.7 16.4 1.9 33 1.4 16.8-.5 31.9-2 42.4-4.2 5.1-1.1 2.4 1.8-5.8 6.2-12.6 6.7-27.2 9.4-51.1 9.5-12.6.1-17.1-.3-27.9-2.6-15-3.1-28.5-7.7-32.5-11.1-1.5-1.2-3.3-4-3.9-6.2-1.2-3.8-1.6-7.2-.8-7.2.2 0 3.7 1.6 7.8 3.5m24.8 41.7c2.5 1.3 4.9 3.3 5.5 4.5.9 2.1 1.7 2.3 8.1 2.3 6.9 0 13.4 1.4 13.4 3 0 1.3-18.2 2.1-23.9 1-9.3-1.8-24-9.7-22.6-12.1.4-.5 3.9-.9 7.8-.9 5.6 0 8.3.5 11.7 2.2m-34.6 12.6c4.5 5.1 15.7 12.6 23.9 16.1 10.2 4.2 19 5.5 32.3 4.8l11.2-.6-1.4 6.2c-6.9 30-16.2 53-29.9 74.2-7.1 11.1-13 18.3-24.8 30.4-22.2 22.6-36.8 32.6-81.2 55.6-35.1 18.2-57.9 35.2-74 55.3-4 4.9-4 5-15 7.5-19.6 4.6-28.8 6-40 6-16.1-.1-25-1.7-38.5-7.3-4-1.7-7.6-2.7-7.9-2.4-1 1 5 5.4 11.5 8.5 18 8.7 46 8.9 71.8.5 5.8-1.8 10.6-3 10.6-2.4 0 2.1-7.2 11.9-9.4 12.8-4.8 1.8-19.8 5-28.8 6.1-11.1 1.4-32.2.6-39.3-1.5-5-1.4-10-3.6-18.5-8.1l-4.5-2.4-.5-14.8c-.3-8.1-.5-14.8-.5-14.9 0 0 13.5-4.4 30-9.8s36.8-12.5 45-15.8c77.3-30.7 131.8-84.9 157.8-156.8 4.6-12.9 13.1-41.6 14.2-48.3.7-4.2 1.3-4.1 5.9 1.1M197.6 716.2c4.2 4.6 6 7.7 8.4 14.7 3.7 11 2 24-3.1 24.1-.3 0-.9-4-1.2-8.9-.8-10.3-3.8-19.5-8.5-26-2.5-3.4-2.9-4.7-2.1-5.7 1.7-2.1 3.2-1.7 6.5 1.8m-9.3 8.6c3.2 3.6 7.9 15.2 8.4 21.1.9 9.8.1 11.2-8.4 13.6-2.1.6-2.3.3-2.3-3.2 0-7.1-4.4-19.3-9.5-26.6-1.7-2.4-2-4.7-.6-4.7.5 0 2.4 1.2 4.2 2.7l3.2 2.7-1.7-3.2c-.9-1.7-1.6-3.3-1.6-3.7 0-1.3 6.8-.3 8.3 1.3m-11.2 13.5c3.2 6.2 5.9 14.6 5.9 18.4 0 3.1-.2 3.3-3.4 3.3-1.8 0-3.9-.6-4.5-1.4-1.4-1.7-2.7-13.6-1.5-13.6.6 0 2.1 2.9 3.4 6.5 2.5 6.7 4.7 8.8 3.5 3.4-.4-1.7-2-5.9-3.6-9.3-5.1-11-4.9-17.5.2-7.3m136.8 43.2c6.8 7.7 10 18.5 9.7 31.9-.1 3.5-.4 4-3.6 5.1-2 .7-5 1.6-6.6 1.9l-3.1.7-.7-9.2c-.7-9.1-2.3-15-4.5-16.4-.9-.5-1 2.3-.5 10.7.5 8 .3 12.1-.5 13.6-1.3 2.5-3.3 2.8-5 .8-1.7-2.1-4.2-15.3-3.9-20.5l.3-4.6 3.4 5.3c4.1 6.6 5.1 6.2 1.7-.7-3.2-6.3-3.3-7.7-.1-8.4 5-.9 9.2 5.3 12.5 18 .6 2.4 1.3 4.3 1.7 4.3.3 0 .3-3.5.1-7.8-.5-7.9-2.2-12.4-7-18.5-2.2-2.7-2.2-2.8-.4-6.2 1.1-1.9 2.2-3.5 2.7-3.5.4 0 2.1 1.6 3.8 3.5m325.8 18.4c5.4 3.9 10.7 10.6 13.9 17.5 3.1 6.7 4.1 16 2.2 19.5-2.3 4.3-3.5 3.5-4-2.6-1.1-12.2-10.1-25.9-20.3-30.9-5.9-2.8-6.5-3.7-3.7-5.3 3.2-1.9 7.8-1.2 11.9 1.8m-10.4 8.3c2.2 1.1 5.3 3.4 6.9 5.1 5.9 6.5 12.8 20.4 12.8 25.7 0 1-.5 2.9-1.1 4.2-1.3 2.8-8.5 8.2-10.2 7.5-.7-.3-3.7-5.1-6.7-10.7-7.8-14.6-17.1-24.3-20.2-21.2-.6.6.2 2.2 2.2 4.6 1.8 2 2.9 3.6 2.6 3.6-1.9 0-12.6-6.2-12.6-7.4 0-1.5 2.7-4 5.2-4.9 2.7-1 10.9 1.9 16.3 5.7 2.7 2 5.1 3.3 5.4 3 1.2-1.1-8.7-9.6-13.1-11.2-2.7-.9-4.8-2-4.8-2.3 0-.4 1.5-1.7 3.3-2.8 3.7-2.5 7.7-2.2 14 1.1m-13.1 25.1c7.7 3.6 7.8 3.7 11.5 11.1 2 4.2 3.4 7.8 3 8.2-3.1 3.1-27.7-18.4-27.7-24.2 0-1.4-.9-1.8 13.2 4.9"/><path d="M482.5 103.1c-11.1.9-34.5 5-34.5 6.1 0 1.6 4.5 1.8 10.2.3 3.4-.8 11.9-2.2 18.8-3 13.7-1.6 17-2.3 17-3.6 0-.5-.3-.8-.7-.8-.5.1-5.3.5-10.8 1m-5 8.6c-12.2.6-19.2 1.6-16.5 2.3 4.3 1.2 25.4-.6 24.5-2.1-.4-.5-.9-.8-1.3-.7s-3.4.3-6.7.5m201.9 216c.7 5 4.5 15.3 5.7 15.3 2.4 0-.8-13.3-4.2-17.2l-2-2.3zm20 18.5c5.2 23.3 8.1 31 7.1 18.9-.6-8.1-4.3-20.2-6.3-20.9-.9-.3-1.1.3-.8 2M688 358.3c0 1.8.7 4.2 1.5 5.3 1.4 1.9 1.4 1.9 1.5-.2 0-3.5-1.2-8.4-2.1-8.4-.5 0-.9 1.5-.9 3.3m10 47.6c0 3.9.9 6.1 2.6 6.1 1.8 0 1.8-1.2 0-5.5s-2.6-4.4-2.6-.6m82 133.5c0 21.4-1.2 34.4-4.6 51.2-4.7 23.5-11.6 43.7-22.7 66.4-8.7 17.7-8.7 17.8-4.2 11 5.5-8.3 16.8-32.1 20.9-44.2 3.9-11.5 7.5-25.9 10.1-40.3 2-11.6 3.4-62.5 1.7-62.5-.9 0-1.2 5.2-1.2 18.4m-67.7 8.3c-1.5 2.6-1.7 10.3-.3 10.3s2.2-4 1.8-8.6c-.3-3.7-.4-3.8-1.5-1.7m-7.6 43.9c-.4.4-.7 2-.7 3.6 0 3.5 2.3 3.4 2.8-.1.4-2.5-1-4.6-2.1-3.5m87.8 6.4c-.7 1.1-3.8 18.9-4.9 27.7-.4 3.1-.3 5.3.3 5.3 1.5 0 5.2-15.7 5.8-25.1.6-8.4.3-10.3-1.2-7.9m-96.9 57c-3.6 4.3-9.6 16.3-9.6 19.2 0 2.2 0 2.2 1.9.3 2.5-2.5 11.3-20.3 10.9-21.7-.2-.6-1.6.4-3.2 2.2m97.3 0c-1.4 2.2-8.9 20.2-8.9 21.5 0 .3.4.5 1 .5 2.8 0 10.4-16.9 9.8-21.9l-.3-2.5zm-112.2 33.2c-2.9 4-3.9 6.6-2.7 7.3 1.1.7 4.7-4.3 5.5-7.8.9-3.6.1-3.4-2.8.5m110.7 17.5c-21 34.7-38.9 54.5-66.9 74.1-8.2 5.8-10.6 8.2-8.1 8.2 4.5 0 24.2-13.9 36.8-25.8 9.5-9.1 25.9-30 33.2-42.5 7-11.8 14.3-26.7 13.2-26.7-.2 0-3.9 5.7-8.2 12.7"/><path d="M757 736.1c-4.7 4.9-6.8 8.4-5.7 9.6.8.8 12.7-11.5 12.7-13.2 0-2.7-2-1.6-7 3.6m-20.2 22.8c-4.4 4.1-4.6 6.4-.4 4.2 3.1-1.7 6.9-6.8 5.6-7.6-.5-.3-2.9 1.2-5.2 3.4M527.2 224.3c-3.8 4.1-7.9 16.7-5.4 16.7 1.2 0 8.5-16.6 8-18-.2-.6-1.3-.1-2.6 1.3m63.7 79.5c-6.6 2.2-19.2 9.8-23.4 14.2-1.6 1.6-2.6 3-2.2 3s4.7-2 9.5-4.4c19.1-9.5 33.7-9.2 46.7 1.1 4.7 3.7 12.1 13.2 16.2 20.7 3.7 7 4.3 5.4 1.2-3.6-5.3-15.4-11.3-23.6-21-28.8-8.1-4.3-18.2-5.1-27-2.2m-76.7 103.9c-2.9 1.1.4 2.3 6.7 2.3 3.7 0 9.3.5 12.5 1.1 8.2 1.5 10 .8 4.9-1.9-3.5-1.8-5.8-2.2-13.5-2.1-5.1 0-9.9.3-10.6.6m165 119.3c-1 18.8-3.2 37.1-5.7 47.7-.3 1.3-.1 2.3.3 2.3 1.1 0 4.7-12 6.1-20.1 1.4-7.9 2.4-41.4 1.4-47.4-.7-4-1.1-.6-2.1 17.5M293 619.7c-15.1 9.8-23.2 15.7-28.6 21.1-3.6 3.5-6.3 6.7-6 6.9.2.3 5.8-3.7 12.3-8.9s14.7-11.6 18.3-14.2c3.6-2.7 6.9-5.3 7.5-5.8 1.6-1.4-.8-.8-3.5.9m316 26.4c-.6 1.1-1 2.5-.8 3.1.5 1.4 3.8-1.9 3.8-3.8 0-2.1-1.8-1.7-3 .7m45.4 7c-13.5 27.1-26.9 46.8-47.1 69.8-8.5 9.6-10.7 13.5-6.5 11.2 2.9-1.6 14.4-13.2 20.3-20.6 7.9-9.8 16.7-23.2 23.6-35.6 6.3-11.4 15.8-32.7 14.9-33.6-.2-.3-2.6 3.7-5.2 8.8m-76.5-3.4c-11 16.2-37.4 43.6-53.6 55.8-5.1 3.8-9 7.1-8.8 7.3.5.5 14.2-8.8 21.2-14.5 13.8-10.9 28.6-27.3 38.4-42.4 6.8-10.3 7.1-10.9 6.5-10.9-.3 0-2 2.1-3.7 4.7M403 696.4c-8.5 3.6-19.8 10.7-24.9 15.5-5.6 5.3-2.7 4.7 6.5-1.4 4.7-3.2 12.3-7.9 16.8-10.6 4.4-2.7 8.8-5.3 9.6-5.8 3-1.9-.7-.9-8 2.3m161 21.5c-1.9 1.6-3.1 3.3-2.7 3.7 1 1.1 7.6-2.5 8.8-4.8 1.6-2.9-2.1-2.3-6.1 1.1m-33.3 21.5c-8.7 5.7-15.7 10.8-15.5 11.2.5 1.5 4 .3 12.2-3.9 9.6-5 24-17.8 19.9-17.7-.5 0-7.9 4.7-16.6 10.4M457.2 771c-6 1.4-6.2 3-.3 3 6 0 10.3-1.7 8-3.1-1.6-1-3.1-1-7.7.1M364 809c0 1 1.7 1.9 6.8 3.4 3.2 1 2.9-1.8-.3-3.2-3.2-1.5-6.5-1.5-6.5-.2m-21.2 3.7c1.3 2.3 11.8 8 21.2 11.6 14 5.2 20.3 6.2 38.5 6.1 9.7 0 19.6-.6 23-1.3 8.9-1.9 24.3-7 25.1-8.3.8-1.2 1.2-1.3-15.1 2.3-8.4 1.8-13.1 2.2-29 2.2-17.9-.1-19.7-.2-30.7-3.1-6.4-1.7-15.6-4.7-20.5-6.7-4.8-2-9.9-3.9-11.2-4.2-2.1-.5-2.2-.4-1.3 1.4m79.7-1c-3.7.8-7.5 2.5-7.5 3.4 0 1.2 5.7 1.1 10.3-.2 3.9-1.1 4.7-2.3 2.1-3.3-1.6-.6-1.7-.6-4.9.1"/><path d="M389.5 815c.3.5 1.7 1 3.1 1 1.3 0 2.4-.5 2.4-1 0-.6-1.4-1-3.1-1s-2.8.4-2.4 1m39.1-226.8c-20.3 32.8-48.7 61.3-83.1 83.3-12.4 7.9-13.8 9.2-5.2 4.9 28.8-14.6 61-43.7 80.6-72.8 4.8-7.1 14.7-24.6 13.9-24.6-.3 0-3 4.2-6.2 9.2m21.9 16.3c-7 9-8 12-2.8 8.3 4.8-3.5 13.1-16.8 10.4-16.8-.5 0-3.9 3.8-7.6 8.5M421.6 646c-6 4.8-17.6 13-25.7 18.1-8.2 5.2-14.9 9.7-14.9 10.1 0 2.2 19.4-7.1 28.8-13.9 10.2-7.2 24.5-21.4 23.1-22.7-.2-.2-5.3 3.6-11.3 8.4m-176.2 93.5c2.2 1.7 5.6 2 5.6.6 0-1.1-2.5-2.1-5.3-2.1-2.2.1-2.2.1-.3 1.5m25.6.9c0 .8.4 1.7.9 2 1.1.7 3.3-1.8 2.4-2.7-1.2-1.2-3.3-.7-3.3.7m-78.8-190.5c-7.3 1.9-14.8 9.4-20.5 20.6-3 6.1-7.2 19.4-6.3 20.2.4.4 3-1.6 5.9-4.5 6.1-6 9.9-7.2 22.7-7.1 7.7 0 20.4 2.5 27.5 5.4 1.1.4.2-.4-1.9-1.9-9.2-6.5-27.9-10.3-39.8-8.3-3 .5-4.8.5-4.8-.1 0-1.7 7.7-10.8 11.2-13.3 2.9-2.1 4.4-2.4 11.8-2.4 7.5 0 9.3.4 15 3.2 12.6 6.2 23.2 15.5 36.2 32 4.5 5.7 8.5 10.3 9 10.3 1 0-1.4-5.9-4.9-12-9.8-17-26.3-33.1-40.6-39.5-5.8-2.6-15.5-3.8-20.5-2.6m62.5 4.1c2.5 4.2 13.3 23.9 16.2 29.5 3.2 6.4 2.4 1.7-1.2-6.5-3.5-8-12.7-22.9-15.4-25.2-1.3-1-1.2-.5.4 2.2m-4.3 11.7c.8 1.6 2.6 3.9 4.1 5.3l2.8 2.5-1.8-3.5c-2-4-4.4-7-5.7-7-.5 0-.2 1.2.6 2.7"/></svg>